/* XPM */
static const char * apple_xpm[] = {
"25 25 158 2",
"  	c None",
". 	c #77532E",
"+ 	c #85502D",
"@ 	c #607843",
"# 	c #63A060",
"$ 	c #69AA68",
"% 	c #639C63",
"& 	c #619761",
"* 	c #5F955F",
"= 	c #5F965F",
"- 	c #549058",
"; 	c #865B34",
"> 	c #714526",
", 	c #4E9958",
"' 	c #68AB69",
") 	c #74B772",
"! 	c #71B06F",
"~ 	c #6FAA6D",
"{ 	c #6DA46A",
"] 	c #6B9F69",
"^ 	c #629862",
"/ 	c #9B4343",
"( 	c #9B4444",
"_ 	c #75502B",
": 	c #198342",
"< 	c #4A8E51",
"[ 	c #64A966",
"} 	c #5EA260",
"| 	c #65A865",
"1 	c #67AB67",
"2 	c #69AA69",
"3 	c #4C8F52",
"4 	c #9C4343",
"5 	c #9A4141",
"6 	c #A84C4C",
"7 	c #CC6363",
"8 	c #D66464",
"9 	c #CD4C4C",
"0 	c #C54646",
"a 	c #A74444",
"b 	c #9C4245",
"c 	c #764E2B",
"d 	c #964540",
"e 	c #9D4143",
"f 	c #9A4242",
"g 	c #A04646",
"h 	c #C65E5E",
"i 	c #ED7676",
"j 	c #E76C6C",
"k 	c #DC4A4A",
"l 	c #DB4848",
"m 	c #DC4949",
"n 	c #DD4A49",
"o 	c #C44648",
"p 	c #744D2D",
"q 	c #A54B49",
"r 	c #A74A4A",
"s 	c #A64646",
"t 	c #A44444",
"u 	c #9F4343",
"v 	c #A64A4A",
"w 	c #DE6D6D",
"x 	c #EC7676",
"y 	c #E46666",
"z 	c #DB4949",
"A 	c #D04945",
"B 	c #9B5B46",
"C 	c #E57070",
"D 	c #DE5959",
"E 	c #DB4C4C",
"F 	c #D84848",
"G 	c #D34848",
"H 	c #C24747",
"I 	c #9B4242",
"J 	c #DC6C6C",
"K 	c #EA7575",
"L 	c #E97373",
"M 	c #DF5757",
"N 	c #DD4849",
"O 	c #DE6866",
"P 	c #E15C5C",
"Q 	c #DB4747",
"R 	c #D24848",
"S 	c #9D4343",
"T 	c #964040",
"U 	c #C05A5A",
"V 	c #EE7777",
"W 	c #E97474",
"X 	c #DD4E4E",
"Y 	c #DA4646",
"Z 	c #EA7474",
"` 	c #DE5454",
" .	c #BD4646",
"..	c #E56A6A",
"+.	c #DC4C4C",
"@.	c #B85656",
"#.	c #EA7676",
"$.	c #DA4545",
"%.	c #D94949",
"&.	c #CE6363",
"*.	c #EA7777",
"=.	c #DA4747",
"-.	c #DD4949",
";.	c #A04343",
">.	c #D86A6A",
",.	c #E87171",
"'.	c #D94444",
").	c #D76969",
"!.	c #E97575",
"~.	c #9E4343",
"{.	c #CE6262",
"].	c #D64949",
"^.	c #BB5757",
"/.	c #DF5858",
"(.	c #CE4848",
"_.	c #A34848",
":.	c #EB7575",
"<.	c #E05B5B",
"[.	c #C04646",
"}.	c #953E3E",
"|.	c #DA6B6B",
"1.	c #E15D5D",
"2.	c #AD4444",
"3.	c #A24747",
"4.	c #E36464",
"5.	c #D24949",
"6.	c #CB6161",
"7.	c #DF5555",
"8.	c #E15454",
"9.	c #A24444",
"0.	c #A04545",
"a.	c #DF6E6E",
"b.	c #E36363",
"c.	c #DF5454",
"d.	c #DC4E4E",
"e.	c #DE5353",
"f.	c #E96E6E",
"g.	c #C85F5F",
"h.	c #994141",
"i.	c #A44949",
"j.	c #DB6A6A",
"k.	c #E87373",
"l.	c #E86F6F",
"m.	c #E87070",
"n.	c #EC7777",
"o.	c #D46868",
"p.	c #9D4444",
"q.	c #CF6464",
"r.	c #CA6161",
"s.	c #974040",
"t.	c #CA6060",
"u.	c #D56767",
"v.	c #D96B6B",
"w.	c #D46767",
"x.	c #C35D5D",
"y.	c #A64949",
"z.	c #984040",
"A.	c #9E4444",
"                                .                 ",
"                            + @ # $ % & * = -     ",
"                            ; > , ' ) ! ~ { ] ^   ",
"                / (         _     : < [ } | 1 2 3 ",
"        4 5 6 7 8 9 0 a b c d 4 4 e               ",
"      f g h i j k l m n o p q r s t u /           ",
"    4 v w x y l l z z m A B C D E F G H 4 /       ",
"  4 I J K L M z z z z z N O P Q z z z z R S       ",
"  T U V W W X z z z z z Y Z ` z z z z z m  .4     ",
"  g L W W ..Y z z z z z Y ..+.z z z z z z R 4 4   ",
"  @.W W #.M l z z z z z z $.z z z z z z z %.S 4   ",
"I &.W W *.=.z z z z z z z z z z z z z z z -.;.4   ",
"I >.W W ,.'.z z z z z z z z z z z z z z z -.;.4   ",
"I ).W W !.+.l z z z z z z z z z z z z z z z ~.4   ",
"I {.W W W ,.+.z z z z z z z z z z z z z z ].4 4   ",
"I ^.W W W L /.z z z z z z z z z z z z z z (./     ",
"  _.:.W W W <.z z z z z z z z z z z z z -.[.4     ",
"  }.|.:.W W 1.z z z z z z z z z z z z z %.2.4     ",
"  / 3.x W !.4.l z z z z z z z z z z z l 5.4       ",
"    / 6.K W !.7.$.z z z z z z z z l $.8.9.        ",
"    4 0.a.K W K b.c.d.E E E +.d.e.1.f.g.h.        ",
"      f i.j.i W !.W k.,.l.m.,.k.W n.o.S           ",
"        4 p.q.:.W W W W W W W W V r.f             ",
"          4 s.r t.u.|.v.>.w.&.x.y.z.              ",
"                I S A.A.A.S 4 f                   "};
