/* XPM */
static const char *mouse[] = {
"30 32 83 1",
" 	c None",
".	c #000000",
"+	c #050505",
"@	c #D6D6D6",
"#	c #686868",
"$	c #030303",
"%	c #D2D2D2",
"&	c #FFFFFF",
"*	c #C1C1C1",
"=	c #535353",
"-	c #6C6C6C",
";	c #C5C5C5",
">	c #2E2E2E",
",	c #D1D1D1",
"'	c #F6F6F6",
")	c #C9C9C9",
"!	c #8C8C8C",
"~	c #F8F8F8",
"{	c #9C9C9C",
"]	c #4E4E4E",
"^	c #FEFEFE",
"/	c #F5F5F5",
"(	c #646464",
"_	c #1D1D1D",
":	c #BCBCBC",
"<	c #F2F2F2",
"[	c #656565",
"}	c #F9F9F9",
"|	c #868686",
"1	c #E3E3E3",
"2	c #BDBDBD",
"3	c #484848",
"4	c #A6A6A6",
"5	c #FDFDFD",
"6	c #D7D7D7",
"7	c #F0F0F0",
"8	c #F3F3F3",
"9	c #C3C3C3",
"0	c #878787",
"a	c #363636",
"b	c #696969",
"c	c #424242",
"d	c #E5E5E5",
"e	c #EBEBEB",
"f	c #A0A0A0",
"g	c #0C0C0C",
"h	c #0A0A0A",
"i	c #DEDEDE",
"j	c #797979",
"k	c #010101",
"l	c #BEBEBE",
"m	c #D5D5D5",
"n	c #8F8F8F",
"o	c #B7B7B7",
"p	c #FCFCFC",
"q	c #7B7B7B",
"r	c #767676",
"s	c #505050",
"t	c #B6B6B6",
"u	c #5B5B5B",
"v	c #151515",
"w	c #CFCFCF",
"x	c #434343",
"y	c #7D7D7D",
"z	c #DCDCDC",
"A	c #040404",
"B	c #D4D4D4",
"C	c #5C5C5C",
"D	c #747474",
"E	c #FBFBFB",
"F	c #232323",
"G	c #ECECEC",
"H	c #FAFAFA",
"I	c #3C3C3C",
"J	c #626262",
"K	c #1C1C1C",
"L	c #EDEDED",
"M	c #F4F4F4",
"N	c #020202",
"O	c #494949",
"P	c #E7E7E7",
"Q	c #777777",
"R	c #1E1E1E",
".                             ",
"..+.                          ",
" .@#.$                        ",
" .%&*=.                       ",
"  -&&&;>.                     ",
"  .,&&&')..                   ",
"  .!&&&&&~{..                 ",
"   ]^&&&&&&/(_                ",
"   .:&&&&&&&&<[..             ",
"    .}&&&&&&&&&,|.$           ",
"    .1&&&&&&&&&&&23.          ",
"    .4&&&&&&&&&&&&56..        ",
"     .7&&&&&&&&&&&&&89..      ",
"     .{&&&&&&&&&&&&&&&&0a.    ",
"      b&&&&&&&&&&&&&&&&&}c..  ",
"      .d&&&&&&&&&&&&&&&&efg.  ",
"       h&&&&&&&&&&&&&5ij..    ",
"       .e&&&&&&&&&&&2..k      ",
"       .l&&&&&&&&&&m.         ",
"        .&&&&&&&&&&&n.        ",
"        .o&&&&&&p^&&&q.       ",
"        .r&&&&&~st&&&&u.      ",
"         v/&&&&w..*&&&&-.     ",
"         .0&&&^.  .i&&&&x.    ",
"          .7&&y.   .z&&&p.A   ",
"          .,&,.     .B&&&^Cg  ",
"           DE.      AFG&&&HI. ",
"           .J.        KL&&&M.$",
"           N.          OP&&Hu.",
"            .          h3'}Q. ",
"                        .R].  ",
"                         ..   "};
